<mxfile host="app.diagrams.net" agent="Mozilla/5.0 (Windows NT 10.0; Win64; x64; rv:132.0) Gecko/20100101 Firefox/132.0" version="24.8.4">
  <diagram name="Сторінка-1" id="80chwZQd678Q8mijvlo9">
    <mxGraphModel grid="1" page="1" gridSize="10" guides="1" tooltips="1" connect="1" arrows="1" fold="1" pageScale="1" pageWidth="827" pageHeight="1169" math="0" shadow="0">
      <root>
        <mxCell id="0" />
        <mxCell id="1" parent="0" />
        <mxCell id="w2UxxnMDe0rsqvVZfb1m-3" style="edgeStyle=orthogonalEdgeStyle;rounded=0;orthogonalLoop=1;jettySize=auto;html=1;entryX=0.5;entryY=0;entryDx=0;entryDy=0;" edge="1" parent="1" source="w2UxxnMDe0rsqvVZfb1m-1" target="w2UxxnMDe0rsqvVZfb1m-2">
          <mxGeometry relative="1" as="geometry" />
        </mxCell>
        <mxCell id="w2UxxnMDe0rsqvVZfb1m-1" value="Start" style="ellipse;whiteSpace=wrap;html=1;" vertex="1" parent="1">
          <mxGeometry x="40" y="40" width="120" height="80" as="geometry" />
        </mxCell>
        <mxCell id="w2UxxnMDe0rsqvVZfb1m-5" style="edgeStyle=orthogonalEdgeStyle;rounded=0;orthogonalLoop=1;jettySize=auto;html=1;entryX=0.5;entryY=0;entryDx=0;entryDy=0;" edge="1" parent="1" source="w2UxxnMDe0rsqvVZfb1m-2" target="w2UxxnMDe0rsqvVZfb1m-4">
          <mxGeometry relative="1" as="geometry" />
        </mxCell>
        <mxCell id="w2UxxnMDe0rsqvVZfb1m-2" value="&lt;div&gt;(global) const int capacity=8&lt;/div&gt;&lt;div&gt;(global) int arr[capacity]&lt;/div&gt;&lt;div&gt;(global) int front = 0&lt;/div&gt;&lt;div&gt;(global) int rear = -1&lt;/div&gt;&lt;div&gt;(global) int size=0&lt;br&gt;&lt;/div&gt;" style="rounded=0;whiteSpace=wrap;html=1;" vertex="1" parent="1">
          <mxGeometry x="20" y="180" width="160" height="80" as="geometry" />
        </mxCell>
        <mxCell id="w2UxxnMDe0rsqvVZfb1m-7" value="" style="edgeStyle=orthogonalEdgeStyle;rounded=0;orthogonalLoop=1;jettySize=auto;html=1;" edge="1" parent="1" source="w2UxxnMDe0rsqvVZfb1m-4" target="w2UxxnMDe0rsqvVZfb1m-6">
          <mxGeometry relative="1" as="geometry" />
        </mxCell>
        <mxCell id="w2UxxnMDe0rsqvVZfb1m-4" value="&lt;div&gt;print()&lt;/div&gt;&lt;div&gt;add(1)&lt;/div&gt;&lt;div&gt;add(2)&lt;/div&gt;&lt;div&gt;add(3)&lt;/div&gt;&lt;div&gt;add(4)&lt;br&gt;add(5)&lt;/div&gt;&lt;div&gt;add(6)&lt;/div&gt;&lt;div&gt;add(7)&lt;/div&gt;&lt;div&gt;add(8)&lt;/div&gt;&lt;div&gt;add(9)&lt;/div&gt;&lt;div&gt;remove()&lt;/div&gt;&lt;div&gt;remove()&lt;/div&gt;&lt;div&gt;add(10)&lt;br&gt;add(11)&lt;br&gt;&lt;/div&gt;" style="shape=process;whiteSpace=wrap;html=1;backgroundOutline=1;" vertex="1" parent="1">
          <mxGeometry x="20" y="300" width="160" height="210" as="geometry" />
        </mxCell>
        <mxCell id="w2UxxnMDe0rsqvVZfb1m-6" value="End" style="ellipse;whiteSpace=wrap;html=1;" vertex="1" parent="1">
          <mxGeometry x="40" y="550" width="120" height="80" as="geometry" />
        </mxCell>
        <mxCell id="w2UxxnMDe0rsqvVZfb1m-9" value="&lt;div&gt;&lt;font style=&quot;font-size: 18px;&quot;&gt;&lt;b&gt;void add(int n)&lt;/b&gt;&lt;/font&gt;&lt;/div&gt;" style="text;html=1;align=center;verticalAlign=middle;resizable=0;points=[];autosize=1;strokeColor=none;fillColor=none;" vertex="1" parent="1">
          <mxGeometry x="340" y="-7" width="150" height="40" as="geometry" />
        </mxCell>
        <mxCell id="w2UxxnMDe0rsqvVZfb1m-12" value="" style="edgeStyle=orthogonalEdgeStyle;rounded=0;orthogonalLoop=1;jettySize=auto;html=1;" edge="1" parent="1" source="w2UxxnMDe0rsqvVZfb1m-10" target="w2UxxnMDe0rsqvVZfb1m-11">
          <mxGeometry relative="1" as="geometry" />
        </mxCell>
        <mxCell id="w2UxxnMDe0rsqvVZfb1m-10" value="&lt;div&gt;Start&lt;/div&gt;" style="ellipse;whiteSpace=wrap;html=1;" vertex="1" parent="1">
          <mxGeometry x="355" y="40" width="120" height="80" as="geometry" />
        </mxCell>
        <mxCell id="w2UxxnMDe0rsqvVZfb1m-14" value="" style="edgeStyle=orthogonalEdgeStyle;rounded=0;orthogonalLoop=1;jettySize=auto;html=1;" edge="1" parent="1" source="w2UxxnMDe0rsqvVZfb1m-11" target="w2UxxnMDe0rsqvVZfb1m-13">
          <mxGeometry relative="1" as="geometry" />
        </mxCell>
        <mxCell id="w2UxxnMDe0rsqvVZfb1m-17" value="Yes" style="edgeLabel;html=1;align=center;verticalAlign=middle;resizable=0;points=[];" connectable="0" vertex="1" parent="w2UxxnMDe0rsqvVZfb1m-14">
          <mxGeometry x="-0.5426" relative="1" as="geometry">
            <mxPoint x="12" as="offset" />
          </mxGeometry>
        </mxCell>
        <mxCell id="w2UxxnMDe0rsqvVZfb1m-18" style="edgeStyle=orthogonalEdgeStyle;rounded=0;orthogonalLoop=1;jettySize=auto;html=1;" edge="1" parent="1" source="w2UxxnMDe0rsqvVZfb1m-11">
          <mxGeometry relative="1" as="geometry">
            <mxPoint x="415" y="310" as="targetPoint" />
          </mxGeometry>
        </mxCell>
        <mxCell id="w2UxxnMDe0rsqvVZfb1m-19" value="No" style="edgeLabel;html=1;align=center;verticalAlign=middle;resizable=0;points=[];" connectable="0" vertex="1" parent="w2UxxnMDe0rsqvVZfb1m-18">
          <mxGeometry x="-0.2441" relative="1" as="geometry">
            <mxPoint as="offset" />
          </mxGeometry>
        </mxCell>
        <mxCell id="w2UxxnMDe0rsqvVZfb1m-11" value="size==capacity?" style="rhombus;whiteSpace=wrap;html=1;" vertex="1" parent="1">
          <mxGeometry x="358" y="170" width="114" height="80" as="geometry" />
        </mxCell>
        <mxCell id="w2UxxnMDe0rsqvVZfb1m-25" style="edgeStyle=orthogonalEdgeStyle;rounded=0;orthogonalLoop=1;jettySize=auto;html=1;entryX=1;entryY=0.5;entryDx=0;entryDy=0;" edge="1" parent="1" source="w2UxxnMDe0rsqvVZfb1m-13" target="w2UxxnMDe0rsqvVZfb1m-23">
          <mxGeometry relative="1" as="geometry">
            <Array as="points">
              <mxPoint x="600" y="560" />
            </Array>
          </mxGeometry>
        </mxCell>
        <mxCell id="w2UxxnMDe0rsqvVZfb1m-13" value="&lt;div&gt;Output &quot;The queue &lt;br&gt;&lt;/div&gt;&lt;div&gt;is full, cannot add&lt;/div&gt;&lt;div&gt;any&amp;nbsp; elements.&quot;&lt;/div&gt;" style="shape=parallelogram;perimeter=parallelogramPerimeter;whiteSpace=wrap;html=1;fixedSize=1;" vertex="1" parent="1">
          <mxGeometry x="530" y="180" width="140" height="60" as="geometry" />
        </mxCell>
        <mxCell id="w2UxxnMDe0rsqvVZfb1m-22" value="" style="edgeStyle=orthogonalEdgeStyle;rounded=0;orthogonalLoop=1;jettySize=auto;html=1;" edge="1" parent="1" source="w2UxxnMDe0rsqvVZfb1m-20" target="w2UxxnMDe0rsqvVZfb1m-21">
          <mxGeometry relative="1" as="geometry" />
        </mxCell>
        <mxCell id="w2UxxnMDe0rsqvVZfb1m-20" value="&lt;div&gt;rear= (rear+1) % capacity&lt;/div&gt;&lt;div&gt;arr[rear]=n&lt;/div&gt;&lt;div&gt;size++&lt;br&gt;&lt;/div&gt;" style="rounded=0;whiteSpace=wrap;html=1;" vertex="1" parent="1">
          <mxGeometry x="342.5" y="310" width="145" height="60" as="geometry" />
        </mxCell>
        <mxCell id="w2UxxnMDe0rsqvVZfb1m-24" value="" style="edgeStyle=orthogonalEdgeStyle;rounded=0;orthogonalLoop=1;jettySize=auto;html=1;" edge="1" parent="1" source="w2UxxnMDe0rsqvVZfb1m-21" target="w2UxxnMDe0rsqvVZfb1m-23">
          <mxGeometry relative="1" as="geometry" />
        </mxCell>
        <mxCell id="w2UxxnMDe0rsqvVZfb1m-21" value="print()" style="shape=process;whiteSpace=wrap;html=1;backgroundOutline=1;" vertex="1" parent="1">
          <mxGeometry x="355" y="410" width="120" height="60" as="geometry" />
        </mxCell>
        <mxCell id="w2UxxnMDe0rsqvVZfb1m-23" value="End" style="ellipse;whiteSpace=wrap;html=1;" vertex="1" parent="1">
          <mxGeometry x="355" y="520" width="120" height="80" as="geometry" />
        </mxCell>
        <mxCell id="w2UxxnMDe0rsqvVZfb1m-27" value="&lt;b&gt;&lt;font style=&quot;font-size: 18px;&quot;&gt;void remove()&lt;br&gt;&lt;/font&gt;&lt;/b&gt;" style="text;html=1;align=center;verticalAlign=middle;resizable=0;points=[];autosize=1;strokeColor=none;fillColor=none;" vertex="1" parent="1">
          <mxGeometry x="827" y="-7" width="140" height="40" as="geometry" />
        </mxCell>
        <mxCell id="w2UxxnMDe0rsqvVZfb1m-30" value="" style="edgeStyle=orthogonalEdgeStyle;rounded=0;orthogonalLoop=1;jettySize=auto;html=1;" edge="1" parent="1" source="w2UxxnMDe0rsqvVZfb1m-28" target="w2UxxnMDe0rsqvVZfb1m-29">
          <mxGeometry relative="1" as="geometry" />
        </mxCell>
        <mxCell id="w2UxxnMDe0rsqvVZfb1m-28" value="Start" style="ellipse;whiteSpace=wrap;html=1;" vertex="1" parent="1">
          <mxGeometry x="837" y="40" width="120" height="80" as="geometry" />
        </mxCell>
        <mxCell id="w2UxxnMDe0rsqvVZfb1m-32" value="" style="edgeStyle=orthogonalEdgeStyle;rounded=0;orthogonalLoop=1;jettySize=auto;html=1;" edge="1" parent="1" source="w2UxxnMDe0rsqvVZfb1m-29" target="w2UxxnMDe0rsqvVZfb1m-31">
          <mxGeometry relative="1" as="geometry" />
        </mxCell>
        <mxCell id="w2UxxnMDe0rsqvVZfb1m-33" value="Yes" style="edgeLabel;html=1;align=center;verticalAlign=middle;resizable=0;points=[];" connectable="0" vertex="1" parent="w2UxxnMDe0rsqvVZfb1m-32">
          <mxGeometry x="-0.2121" relative="1" as="geometry">
            <mxPoint as="offset" />
          </mxGeometry>
        </mxCell>
        <mxCell id="w2UxxnMDe0rsqvVZfb1m-35" value="" style="edgeStyle=orthogonalEdgeStyle;rounded=0;orthogonalLoop=1;jettySize=auto;html=1;" edge="1" parent="1" source="w2UxxnMDe0rsqvVZfb1m-29" target="w2UxxnMDe0rsqvVZfb1m-34">
          <mxGeometry relative="1" as="geometry" />
        </mxCell>
        <mxCell id="w2UxxnMDe0rsqvVZfb1m-41" value="No" style="edgeLabel;html=1;align=center;verticalAlign=middle;resizable=0;points=[];" connectable="0" vertex="1" parent="w2UxxnMDe0rsqvVZfb1m-35">
          <mxGeometry x="-0.375" relative="1" as="geometry">
            <mxPoint as="offset" />
          </mxGeometry>
        </mxCell>
        <mxCell id="w2UxxnMDe0rsqvVZfb1m-29" value="size==0?" style="rhombus;whiteSpace=wrap;html=1;" vertex="1" parent="1">
          <mxGeometry x="840" y="170" width="114" height="80" as="geometry" />
        </mxCell>
        <mxCell id="w2UxxnMDe0rsqvVZfb1m-40" style="edgeStyle=orthogonalEdgeStyle;rounded=0;orthogonalLoop=1;jettySize=auto;html=1;entryX=1;entryY=0.5;entryDx=0;entryDy=0;" edge="1" parent="1" source="w2UxxnMDe0rsqvVZfb1m-31" target="w2UxxnMDe0rsqvVZfb1m-38">
          <mxGeometry relative="1" as="geometry">
            <mxPoint x="960" y="560" as="targetPoint" />
            <Array as="points">
              <mxPoint x="1080" y="560" />
            </Array>
          </mxGeometry>
        </mxCell>
        <mxCell id="w2UxxnMDe0rsqvVZfb1m-31" value="&lt;div&gt;Output &quot;The queue &lt;br&gt;&lt;/div&gt;&lt;div&gt;is empty, no elements&lt;/div&gt;&lt;div&gt;to remove.&quot;&lt;/div&gt;" style="shape=parallelogram;perimeter=parallelogramPerimeter;whiteSpace=wrap;html=1;fixedSize=1;" vertex="1" parent="1">
          <mxGeometry x="1010" y="180" width="150" height="60" as="geometry" />
        </mxCell>
        <mxCell id="w2UxxnMDe0rsqvVZfb1m-37" value="" style="edgeStyle=orthogonalEdgeStyle;rounded=0;orthogonalLoop=1;jettySize=auto;html=1;" edge="1" parent="1" source="w2UxxnMDe0rsqvVZfb1m-34" target="w2UxxnMDe0rsqvVZfb1m-36">
          <mxGeometry relative="1" as="geometry" />
        </mxCell>
        <mxCell id="w2UxxnMDe0rsqvVZfb1m-34" value="&lt;div&gt;front=(front+1)%capacity&lt;/div&gt;&lt;div&gt;size--&lt;br&gt;&lt;/div&gt;" style="rounded=0;whiteSpace=wrap;html=1;" vertex="1" parent="1">
          <mxGeometry x="825.5" y="290" width="143" height="60" as="geometry" />
        </mxCell>
        <mxCell id="w2UxxnMDe0rsqvVZfb1m-39" value="" style="edgeStyle=orthogonalEdgeStyle;rounded=0;orthogonalLoop=1;jettySize=auto;html=1;" edge="1" parent="1" source="w2UxxnMDe0rsqvVZfb1m-36" target="w2UxxnMDe0rsqvVZfb1m-38">
          <mxGeometry relative="1" as="geometry" />
        </mxCell>
        <mxCell id="w2UxxnMDe0rsqvVZfb1m-36" value="print()" style="shape=process;whiteSpace=wrap;html=1;backgroundOutline=1;" vertex="1" parent="1">
          <mxGeometry x="837" y="400" width="120" height="60" as="geometry" />
        </mxCell>
        <mxCell id="w2UxxnMDe0rsqvVZfb1m-38" value="End" style="ellipse;whiteSpace=wrap;html=1;" vertex="1" parent="1">
          <mxGeometry x="837" y="520" width="120" height="80" as="geometry" />
        </mxCell>
        <mxCell id="w2UxxnMDe0rsqvVZfb1m-42" value="&lt;div&gt;&lt;b&gt;&lt;font style=&quot;font-size: 18px;&quot;&gt;void print()&lt;/font&gt;&lt;/b&gt;&lt;/div&gt;" style="text;html=1;align=center;verticalAlign=middle;resizable=0;points=[];autosize=1;strokeColor=none;fillColor=none;" vertex="1" parent="1">
          <mxGeometry x="1430" y="-7" width="120" height="40" as="geometry" />
        </mxCell>
        <mxCell id="w2UxxnMDe0rsqvVZfb1m-51" value="" style="edgeStyle=orthogonalEdgeStyle;rounded=0;orthogonalLoop=1;jettySize=auto;html=1;" edge="1" parent="1" source="w2UxxnMDe0rsqvVZfb1m-43" target="w2UxxnMDe0rsqvVZfb1m-48">
          <mxGeometry relative="1" as="geometry" />
        </mxCell>
        <mxCell id="w2UxxnMDe0rsqvVZfb1m-43" value="Start" style="ellipse;whiteSpace=wrap;html=1;" vertex="1" parent="1">
          <mxGeometry x="1430" y="33" width="120" height="80" as="geometry" />
        </mxCell>
        <mxCell id="w2UxxnMDe0rsqvVZfb1m-44" value="" style="edgeStyle=orthogonalEdgeStyle;rounded=0;orthogonalLoop=1;jettySize=auto;html=1;" edge="1" parent="1" source="w2UxxnMDe0rsqvVZfb1m-48" target="w2UxxnMDe0rsqvVZfb1m-49">
          <mxGeometry relative="1" as="geometry" />
        </mxCell>
        <mxCell id="w2UxxnMDe0rsqvVZfb1m-45" value="Yes" style="edgeLabel;html=1;align=center;verticalAlign=middle;resizable=0;points=[];" connectable="0" vertex="1" parent="w2UxxnMDe0rsqvVZfb1m-44">
          <mxGeometry x="-0.2121" relative="1" as="geometry">
            <mxPoint as="offset" />
          </mxGeometry>
        </mxCell>
        <mxCell id="w2UxxnMDe0rsqvVZfb1m-46" value="" style="edgeStyle=orthogonalEdgeStyle;rounded=0;orthogonalLoop=1;jettySize=auto;html=1;" edge="1" parent="1" source="w2UxxnMDe0rsqvVZfb1m-48">
          <mxGeometry relative="1" as="geometry">
            <mxPoint x="1491.5" y="300" as="targetPoint" />
          </mxGeometry>
        </mxCell>
        <mxCell id="w2UxxnMDe0rsqvVZfb1m-47" value="No" style="edgeLabel;html=1;align=center;verticalAlign=middle;resizable=0;points=[];" connectable="0" vertex="1" parent="w2UxxnMDe0rsqvVZfb1m-46">
          <mxGeometry x="-0.375" relative="1" as="geometry">
            <mxPoint as="offset" />
          </mxGeometry>
        </mxCell>
        <mxCell id="w2UxxnMDe0rsqvVZfb1m-48" value="size==0?" style="rhombus;whiteSpace=wrap;html=1;" vertex="1" parent="1">
          <mxGeometry x="1433" y="180" width="114" height="80" as="geometry" />
        </mxCell>
        <mxCell id="w2UxxnMDe0rsqvVZfb1m-66" style="edgeStyle=orthogonalEdgeStyle;rounded=0;orthogonalLoop=1;jettySize=auto;html=1;entryX=0.5;entryY=0;entryDx=0;entryDy=0;" edge="1" parent="1" source="w2UxxnMDe0rsqvVZfb1m-49" target="w2UxxnMDe0rsqvVZfb1m-68">
          <mxGeometry relative="1" as="geometry">
            <mxPoint x="1679.5" y="440" as="targetPoint" />
          </mxGeometry>
        </mxCell>
        <mxCell id="w2UxxnMDe0rsqvVZfb1m-49" value="&lt;div&gt;Output &quot;The queue &lt;br&gt;&lt;/div&gt;&lt;div&gt;is empty, no elements&lt;/div&gt;&lt;div&gt;to print.&quot;&lt;/div&gt;" style="shape=parallelogram;perimeter=parallelogramPerimeter;whiteSpace=wrap;html=1;fixedSize=1;" vertex="1" parent="1">
          <mxGeometry x="1604.5" y="190" width="150" height="60" as="geometry" />
        </mxCell>
        <mxCell id="w2UxxnMDe0rsqvVZfb1m-53" style="edgeStyle=orthogonalEdgeStyle;rounded=0;orthogonalLoop=1;jettySize=auto;html=1;" edge="1" parent="1" source="w2UxxnMDe0rsqvVZfb1m-52">
          <mxGeometry relative="1" as="geometry">
            <mxPoint x="1490" y="410" as="targetPoint" />
          </mxGeometry>
        </mxCell>
        <mxCell id="w2UxxnMDe0rsqvVZfb1m-52" value="&lt;div&gt;Output &quot;Current&lt;/div&gt;&lt;div&gt;queue: &quot;&lt;/div&gt;" style="shape=parallelogram;perimeter=parallelogramPerimeter;whiteSpace=wrap;html=1;fixedSize=1;" vertex="1" parent="1">
          <mxGeometry x="1430" y="300" width="120" height="60" as="geometry" />
        </mxCell>
        <mxCell id="w2UxxnMDe0rsqvVZfb1m-56" value="" style="edgeStyle=orthogonalEdgeStyle;rounded=0;orthogonalLoop=1;jettySize=auto;html=1;" edge="1" parent="1" source="w2UxxnMDe0rsqvVZfb1m-54" target="w2UxxnMDe0rsqvVZfb1m-55">
          <mxGeometry relative="1" as="geometry" />
        </mxCell>
        <mxCell id="w2UxxnMDe0rsqvVZfb1m-54" value="int i=0" style="rounded=0;whiteSpace=wrap;html=1;" vertex="1" parent="1">
          <mxGeometry x="1430" y="410" width="120" height="60" as="geometry" />
        </mxCell>
        <mxCell id="w2UxxnMDe0rsqvVZfb1m-57" style="edgeStyle=orthogonalEdgeStyle;rounded=0;orthogonalLoop=1;jettySize=auto;html=1;" edge="1" parent="1" source="w2UxxnMDe0rsqvVZfb1m-55">
          <mxGeometry relative="1" as="geometry">
            <mxPoint x="1490" y="640" as="targetPoint" />
          </mxGeometry>
        </mxCell>
        <mxCell id="w2UxxnMDe0rsqvVZfb1m-55" value="Output arr[(front+i)%capacity] &quot; &quot;" style="shape=parallelogram;perimeter=parallelogramPerimeter;whiteSpace=wrap;html=1;fixedSize=1;" vertex="1" parent="1">
          <mxGeometry x="1390" y="530" width="200" height="60" as="geometry" />
        </mxCell>
        <mxCell id="w2UxxnMDe0rsqvVZfb1m-59" style="edgeStyle=orthogonalEdgeStyle;rounded=0;orthogonalLoop=1;jettySize=auto;html=1;" edge="1" parent="1" source="w2UxxnMDe0rsqvVZfb1m-58">
          <mxGeometry relative="1" as="geometry">
            <mxPoint x="1490" y="500" as="targetPoint" />
            <Array as="points">
              <mxPoint x="1321" y="680" />
            </Array>
          </mxGeometry>
        </mxCell>
        <mxCell id="w2UxxnMDe0rsqvVZfb1m-60" value="Yes" style="edgeLabel;html=1;align=center;verticalAlign=middle;resizable=0;points=[];" connectable="0" vertex="1" parent="w2UxxnMDe0rsqvVZfb1m-59">
          <mxGeometry x="-0.784" relative="1" as="geometry">
            <mxPoint as="offset" />
          </mxGeometry>
        </mxCell>
        <mxCell id="w2UxxnMDe0rsqvVZfb1m-61" value="i++" style="edgeLabel;html=1;align=center;verticalAlign=middle;resizable=0;points=[];" connectable="0" vertex="1" parent="w2UxxnMDe0rsqvVZfb1m-59">
          <mxGeometry x="-0.1274" relative="1" as="geometry">
            <mxPoint x="-1" y="-2" as="offset" />
          </mxGeometry>
        </mxCell>
        <mxCell id="w2UxxnMDe0rsqvVZfb1m-62" style="edgeStyle=orthogonalEdgeStyle;rounded=0;orthogonalLoop=1;jettySize=auto;html=1;" edge="1" parent="1" source="w2UxxnMDe0rsqvVZfb1m-58" target="w2UxxnMDe0rsqvVZfb1m-63">
          <mxGeometry relative="1" as="geometry">
            <mxPoint x="1600" y="680" as="targetPoint" />
          </mxGeometry>
        </mxCell>
        <mxCell id="w2UxxnMDe0rsqvVZfb1m-64" value="No" style="edgeLabel;html=1;align=center;verticalAlign=middle;resizable=0;points=[];" connectable="0" vertex="1" parent="w2UxxnMDe0rsqvVZfb1m-62">
          <mxGeometry x="-0.1006" relative="1" as="geometry">
            <mxPoint as="offset" />
          </mxGeometry>
        </mxCell>
        <mxCell id="w2UxxnMDe0rsqvVZfb1m-58" value="i&amp;lt;size?" style="rhombus;whiteSpace=wrap;html=1;" vertex="1" parent="1">
          <mxGeometry x="1435" y="640" width="110" height="80" as="geometry" />
        </mxCell>
        <mxCell id="w2UxxnMDe0rsqvVZfb1m-67" style="edgeStyle=orthogonalEdgeStyle;rounded=0;orthogonalLoop=1;jettySize=auto;html=1;entryX=0;entryY=0.5;entryDx=0;entryDy=0;" edge="1" parent="1" source="w2UxxnMDe0rsqvVZfb1m-63" target="w2UxxnMDe0rsqvVZfb1m-68">
          <mxGeometry relative="1" as="geometry">
            <mxPoint x="1679.5" y="510" as="targetPoint" />
          </mxGeometry>
        </mxCell>
        <mxCell id="w2UxxnMDe0rsqvVZfb1m-63" value="Output endl" style="shape=parallelogram;perimeter=parallelogramPerimeter;whiteSpace=wrap;html=1;fixedSize=1;" vertex="1" parent="1">
          <mxGeometry x="1619.5" y="650" width="120" height="60" as="geometry" />
        </mxCell>
        <mxCell id="w2UxxnMDe0rsqvVZfb1m-68" value="End" style="ellipse;whiteSpace=wrap;html=1;" vertex="1" parent="1">
          <mxGeometry x="1800" y="640" width="120" height="80" as="geometry" />
        </mxCell>
      </root>
    </mxGraphModel>
  </diagram>
</mxfile>
